<svg xmlns="http://www.w3.org/2000/svg" viewBox="0 0 1600 960" role="img" aria-labelledby="title desc">
  <title id="title">Mecanum Print Layout</title>
  <desc id="desc">Placeholder print and assembly layout board for mecanum wheel study.</desc>
  <rect width="1600" height="960" fill="#0a1420"/>
  <rect x="60" y="60" width="1480" height="840" rx="28" fill="#112133" stroke="#2a4258" stroke-width="4"/>
  <rect x="120" y="128" width="650" height="700" rx="24" fill="#13293e"/>
  <rect x="828" y="128" width="652" height="214" rx="24" fill="#163149"/>
  <rect x="828" y="380" width="652" height="214" rx="24" fill="#142a40"/>
  <rect x="828" y="632" width="652" height="196" rx="24" fill="#152b41"/>
  <g transform="translate(180 188)" fill="#1e3650" stroke="#6ec7bf" stroke-width="12">
    <rect x="0" y="0" width="170" height="170" rx="18"/>
    <rect x="208" y="0" width="170" height="170" rx="18"/>
    <rect x="0" y="208" width="170" height="170" rx="18"/>
    <rect x="208" y="208" width="170" height="170" rx="18"/>
    <rect x="416" y="104" width="170" height="170" rx="18"/>
  </g>
  <path d="M900 210h420M900 278h298M900 462h426M900 530h322M900 714h360" stroke="#a8bfce" stroke-width="18" stroke-linecap="round"/>
  <text x="120" y="106" fill="#dfe9f4" font-family="IBM Plex Sans, Arial, sans-serif" font-size="42" font-weight="700">Print layout and assembly plan</text>
  <text x="120" y="876" fill="#8fb1ca" font-family="IBM Plex Mono, monospace" font-size="28">Part count / print orientation / critical fit interfaces</text>
</svg>
