<svg xmlns="http://www.w3.org/2000/svg" viewBox="0 0 1200 1500" role="img" aria-labelledby="title desc">
  <title id="title">Mecanum Roller Geometry</title>
  <desc id="desc">Placeholder study board focused on roller geometry and contact orientation.</desc>
  <rect width="1200" height="1500" fill="#0a1522"/>
  <rect x="52" y="52" width="1096" height="1396" rx="28" fill="#112234" stroke="#2a4157" stroke-width="4"/>
  <rect x="116" y="118" width="968" height="460" rx="24" fill="#14293f"/>
  <rect x="116" y="632" width="460" height="730" rx="24" fill="#173046"/>
  <rect x="624" y="632" width="460" height="730" rx="24" fill="#162d43"/>
  <g transform="translate(220 224)">
    <ellipse cx="250" cy="120" rx="196" ry="84" fill="#1d374e" stroke="#6ec7bf" stroke-width="16"/>
    <g stroke="#e0a458" stroke-width="20" stroke-linecap="round">
      <line x1="66" y1="22" x2="236" y2="218"/>
      <line x1="136" y1="2" x2="306" y2="198"/>
      <line x1="206" y1="-10" x2="376" y2="186"/>
      <line x1="276" y1="0" x2="446" y2="196"/>
    </g>
  </g>
  <path d="M190 760h284M190 830h226M190 900h312M190 970h248" stroke="#a5bac8" stroke-width="16" stroke-linecap="round"/>
  <path d="M696 760h284M696 830h240M696 900h320M696 970h200" stroke="#a5bac8" stroke-width="16" stroke-linecap="round"/>
  <text x="116" y="100" fill="#dfe9f4" font-family="IBM Plex Sans, Arial, sans-serif" font-size="40" font-weight="700">Roller geometry and tolerance study</text>
  <text x="118" y="1410" fill="#8fb1ca" font-family="IBM Plex Mono, monospace" font-size="26">Contact angle / fit strategy / printable interfaces</text>
</svg>
