<svg xmlns="http://www.w3.org/2000/svg" viewBox="0 0 1600 980" role="img" aria-labelledby="title desc">
  <title id="title">Test-Bench Build Notes</title>
  <desc id="desc">Placeholder board for build notes and prototype workflow.</desc>
  <rect width="1600" height="980" fill="#091420"/>
  <rect x="58" y="58" width="1484" height="864" rx="28" fill="#112132" stroke="#294058" stroke-width="4"/>
  <rect x="116" y="120" width="1368" height="220" rx="24" fill="#14293f"/>
  <rect x="116" y="386" width="430" height="464" rx="24" fill="#173046"/>
  <rect x="584" y="386" width="430" height="464" rx="24" fill="#162d43"/>
  <rect x="1052" y="386" width="432" height="464" rx="24" fill="#152c42"/>
  <path d="M190 210h846M190 278h692" stroke="#a8bfce" stroke-width="18" stroke-linecap="round"/>
  <path d="M174 470h314M174 538h268M174 606h328" stroke="#a8bfce" stroke-width="16" stroke-linecap="round"/>
  <path d="M644 470h312M644 538h264M644 606h332" stroke="#a8bfce" stroke-width="16" stroke-linecap="round"/>
  <path d="M1114 470h304M1114 538h246M1114 606h318" stroke="#a8bfce" stroke-width="16" stroke-linecap="round"/>
  <text x="116" y="100" fill="#dfe9f4" font-family="IBM Plex Sans, Arial, sans-serif" font-size="42" font-weight="700">Build notes and prototype workflow</text>
  <text x="118" y="890" fill="#8fb1ca" font-family="IBM Plex Mono, monospace" font-size="28">Rapid development / team context / future integration ideas</text>
</svg>
